<svg width="15" height="50" viewBox="0 0 15 50" fill="none" xmlns="http://www.w3.org/2000/svg">
<path d="M7.5 0V50" stroke="#707070" stroke-width="2"/>
<g clip-path="url(#clip0)">
<path d="M7.5 32C11.0899 32 14 29.0899 14 25.5C14 21.9101 11.0899 19 7.5 19C3.91015 19 1 21.9101 1 25.5C1 29.0899 3.91015 32 7.5 32Z" fill="#B0B5C3"/>
<path d="M8.25 21.75H6.75V24.75H3.75V26.25H6.75V29.25H8.25V26.25H11.25V24.75H8.25V21.75ZM7.5 18C6.01664 18 4.56659 18.4399 3.33322 19.264C2.09985 20.0881 1.13856 21.2594 0.570903 22.6299C0.00324583 24.0003 -0.145279 25.5083 0.14411 26.9632C0.433499 28.418 1.1478 29.7544 2.1967 30.8033C3.24559 31.8522 4.58196 32.5665 6.03682 32.8559C7.49168 33.1453 8.99968 32.9968 10.3701 32.4291C11.7406 31.8614 12.9119 30.9001 13.736 29.6668C14.5601 28.4334 15 26.9834 15 25.5C14.9942 23.5127 14.2022 21.6084 12.7969 20.2031C11.3916 18.7978 9.48734 18.0058 7.5 18V18ZM7.5 31.5C6.31331 31.5 5.15327 31.1481 4.16658 30.4888C3.17988 29.8295 2.41085 28.8925 1.95672 27.7961C1.5026 26.6997 1.38378 25.4933 1.61529 24.3295C1.8468 23.1656 2.41824 22.0965 3.25736 21.2574C4.09647 20.4182 5.16557 19.8468 6.32946 19.6153C7.49334 19.3838 8.69974 19.5026 9.7961 19.9567C10.8925 20.4108 11.8295 21.1799 12.4888 22.1666C13.1481 23.1533 13.5 24.3133 13.5 25.5C13.4953 27.0898 12.8616 28.6132 11.7374 29.7374C10.6132 30.8616 9.08984 31.4953 7.5 31.5V31.5Z" fill="#B0B5C3"/>
<path d="M6.852 26.133H4V24.879H6.852V22H8.144V24.879H11V26.133H8.144V28.998H6.852V26.133Z" fill="white"/>
</g>
<defs>
<clipPath id="clip0">
<rect width="15" height="15" fill="white" transform="translate(0 18)"/>
</clipPath>
</defs>
</svg>
