<svg width="356" height="78" viewBox="0 0 356 78" fill="none" xmlns="http://www.w3.org/2000/svg">
<g filter="url(#filter0_d)">
<rect x="4" width="348" height="70" fill="white"/>
</g>
<rect width="40" height="50" transform="translate(32 10)" fill="white"/>
<path d="M72 10H32V60H72V10Z" fill="white"/>
<path d="M71 11H33V59H71V11Z" stroke="#707070" stroke-width="2" stroke-linecap="round" stroke-linejoin="round"/>
<path d="M63.502 19.687H41.148C40.732 19.7289 40.3463 19.9238 40.0659 20.234C39.7854 20.5441 39.6301 20.9474 39.6301 21.3655C39.6301 21.7836 39.7854 22.1869 40.0659 22.497C40.3463 22.8071 40.732 23.0021 41.148 23.044H63.502C63.918 23.0021 64.3037 22.8071 64.5841 22.497C64.8646 22.1869 65.0199 21.7836 65.0199 21.3655C65.0199 20.9474 64.8646 20.5441 64.5841 20.234C64.3037 19.9238 63.918 19.7289 63.502 19.687V19.687Z" fill="#B0B5C3"/>
<path d="M63.502 27.687H41.148C40.732 27.7289 40.3463 27.9238 40.0659 28.234C39.7854 28.5441 39.6301 28.9474 39.6301 29.3655C39.6301 29.7836 39.7854 30.1869 40.0659 30.497C40.3463 30.8071 40.732 31.0021 41.148 31.044H63.502C63.918 31.0021 64.3037 30.8071 64.5841 30.497C64.8646 30.1869 65.0199 29.7836 65.0199 29.3655C65.0199 28.9474 64.8646 28.5441 64.5841 28.234C64.3037 27.9238 63.918 27.7289 63.502 27.687V27.687Z" fill="#B0B5C3"/>
<path d="M47.593 45.928L51.806 49.211L57.124 41.084" stroke="#E6BA73" stroke-width="3" stroke-linecap="round" stroke-linejoin="round"/>
<path d="M101.088 32.5635C99.9622 32.2399 99.1419 31.8434 98.627 31.374C98.1165 30.9001 97.8613 30.3167 97.8613 29.624C97.8613 28.8402 98.1735 28.193 98.7979 27.6826C99.4268 27.1676 100.243 26.9102 101.245 26.9102C101.929 26.9102 102.537 27.0423 103.07 27.3066C103.608 27.571 104.023 27.9355 104.314 28.4004C104.611 28.8652 104.759 29.3734 104.759 29.9248H103.439C103.439 29.3232 103.248 28.8516 102.865 28.5098C102.482 28.1634 101.942 27.9902 101.245 27.9902C100.598 27.9902 100.092 28.1338 99.7275 28.4209C99.3675 28.7035 99.1875 29.0977 99.1875 29.6035C99.1875 30.0091 99.3584 30.3532 99.7002 30.6357C100.047 30.9137 100.632 31.1689 101.457 31.4014C102.286 31.6338 102.934 31.8913 103.398 32.1738C103.868 32.4518 104.214 32.7777 104.438 33.1514C104.665 33.5251 104.779 33.9648 104.779 34.4707C104.779 35.2773 104.465 35.9245 103.836 36.4121C103.207 36.8952 102.366 37.1367 101.313 37.1367C100.63 37.1367 99.9919 37.0068 99.3994 36.7471C98.807 36.4827 98.349 36.1227 98.0254 35.667C97.7064 35.2113 97.5469 34.694 97.5469 34.1152H98.8662C98.8662 34.7168 99.0872 35.193 99.5293 35.5439C99.9759 35.8903 100.571 36.0635 101.313 36.0635C102.006 36.0635 102.537 35.9222 102.906 35.6396C103.275 35.3571 103.46 34.972 103.46 34.4844C103.46 33.9967 103.289 33.6208 102.947 33.3564C102.605 33.0876 101.986 32.8232 101.088 32.5635ZM110.836 36.2686C110.344 36.8473 109.621 37.1367 108.669 37.1367C107.881 37.1367 107.279 36.9089 106.864 36.4531C106.454 35.9928 106.247 35.3138 106.242 34.416V29.6035H107.507V34.3818C107.507 35.5029 107.963 36.0635 108.874 36.0635C109.84 36.0635 110.483 35.7035 110.802 34.9834V29.6035H112.066V37H110.863L110.836 36.2686ZM120.256 33.3838C120.256 34.514 119.996 35.4232 119.477 36.1113C118.957 36.7949 118.26 37.1367 117.385 37.1367C116.451 37.1367 115.728 36.8063 115.218 36.1455L115.156 37H113.994V26.5H115.259V30.417C115.769 29.7835 116.473 29.4668 117.371 29.4668C118.269 29.4668 118.973 29.8063 119.483 30.4854C119.998 31.1644 120.256 32.0941 120.256 33.2744V33.3838ZM118.991 33.2402C118.991 32.3789 118.825 31.7135 118.492 31.2441C118.16 30.7747 117.681 30.54 117.057 30.54C116.223 30.54 115.623 30.9274 115.259 31.7021V34.9014C115.646 35.6761 116.25 36.0635 117.07 36.0635C117.676 36.0635 118.148 35.8288 118.485 35.3594C118.823 34.89 118.991 34.1836 118.991 33.2402ZM126.162 35.0381C126.162 34.6963 126.032 34.432 125.772 34.2451C125.517 34.0537 125.068 33.8896 124.426 33.7529C123.788 33.6162 123.28 33.4521 122.901 33.2607C122.528 33.0693 122.25 32.8415 122.067 32.5771C121.89 32.3128 121.801 31.9984 121.801 31.6338C121.801 31.0277 122.056 30.515 122.566 30.0957C123.081 29.6764 123.738 29.4668 124.535 29.4668C125.374 29.4668 126.053 29.6833 126.572 30.1162C127.096 30.5492 127.358 31.1029 127.358 31.7773H126.087C126.087 31.431 125.939 31.1325 125.643 30.8818C125.351 30.6312 124.982 30.5059 124.535 30.5059C124.075 30.5059 123.715 30.6061 123.455 30.8066C123.195 31.0072 123.065 31.2692 123.065 31.5928C123.065 31.8981 123.186 32.1283 123.428 32.2832C123.669 32.4382 124.104 32.5863 124.733 32.7275C125.367 32.8688 125.88 33.0374 126.271 33.2334C126.663 33.4294 126.953 33.6663 127.14 33.9443C127.331 34.2178 127.427 34.5527 127.427 34.9492C127.427 35.61 127.162 36.141 126.634 36.542C126.105 36.9385 125.419 37.1367 124.576 37.1367C123.984 37.1367 123.46 37.0319 123.004 36.8223C122.548 36.6126 122.19 36.321 121.931 35.9473C121.675 35.569 121.548 35.1611 121.548 34.7236H122.812C122.835 35.1475 123.004 35.4847 123.318 35.7354C123.637 35.9814 124.057 36.1045 124.576 36.1045C125.055 36.1045 125.438 36.0088 125.725 35.8174C126.016 35.6214 126.162 35.3617 126.162 35.0381ZM132.041 36.1045C132.492 36.1045 132.886 35.9678 133.224 35.6943C133.561 35.4209 133.748 35.0791 133.784 34.6689H134.98C134.958 35.0928 134.812 35.4961 134.543 35.8789C134.274 36.2617 133.914 36.5671 133.463 36.7949C133.016 37.0228 132.542 37.1367 132.041 37.1367C131.034 37.1367 130.232 36.8018 129.635 36.1318C129.042 35.4574 128.746 34.5368 128.746 33.3701V33.1582C128.746 32.4382 128.878 31.7979 129.143 31.2373C129.407 30.6768 129.785 30.2415 130.277 29.9316C130.774 29.6217 131.36 29.4668 132.034 29.4668C132.864 29.4668 133.552 29.7152 134.099 30.2119C134.65 30.7087 134.944 31.3535 134.98 32.1465H133.784C133.748 31.668 133.565 31.276 133.237 30.9707C132.914 30.6608 132.513 30.5059 132.034 30.5059C131.392 30.5059 130.893 30.7383 130.537 31.2031C130.186 31.6634 130.011 32.3311 130.011 33.2061V33.4453C130.011 34.2975 130.186 34.9538 130.537 35.4141C130.888 35.8743 131.389 36.1045 132.041 36.1045ZM139.978 30.7383C139.786 30.7064 139.579 30.6904 139.355 30.6904C138.526 30.6904 137.963 31.0436 137.667 31.75V37H136.402V29.6035H137.633L137.653 30.458C138.068 29.7972 138.656 29.4668 139.417 29.4668C139.663 29.4668 139.85 29.4987 139.978 29.5625V30.7383ZM142.521 37H141.256V29.6035H142.521V37ZM141.153 27.6416C141.153 27.4365 141.215 27.2633 141.338 27.1221C141.465 26.9808 141.652 26.9102 141.898 26.9102C142.145 26.9102 142.331 26.9808 142.459 27.1221C142.587 27.2633 142.65 27.4365 142.65 27.6416C142.65 27.8467 142.587 28.0176 142.459 28.1543C142.331 28.291 142.145 28.3594 141.898 28.3594C141.652 28.3594 141.465 28.291 141.338 28.1543C141.215 28.0176 141.153 27.8467 141.153 27.6416ZM150.812 33.3838C150.812 34.514 150.553 35.4232 150.033 36.1113C149.514 36.7949 148.816 37.1367 147.941 37.1367C147.007 37.1367 146.285 36.8063 145.774 36.1455L145.713 37H144.551V26.5H145.815V30.417C146.326 29.7835 147.03 29.4668 147.928 29.4668C148.826 29.4668 149.53 29.8063 150.04 30.4854C150.555 31.1644 150.812 32.0941 150.812 33.2744V33.3838ZM149.548 33.2402C149.548 32.3789 149.382 31.7135 149.049 31.2441C148.716 30.7747 148.238 30.54 147.613 30.54C146.779 30.54 146.18 30.9274 145.815 31.7021V34.9014C146.203 35.6761 146.807 36.0635 147.627 36.0635C148.233 36.0635 148.705 35.8288 149.042 35.3594C149.379 34.89 149.548 34.1836 149.548 33.2402ZM155.481 37.1367C154.479 37.1367 153.663 36.8086 153.034 36.1523C152.405 35.4915 152.091 34.6097 152.091 33.5068V33.2744C152.091 32.5407 152.23 31.8867 152.508 31.3125C152.79 30.7337 153.182 30.2826 153.684 29.959C154.189 29.6309 154.736 29.4668 155.324 29.4668C156.286 29.4668 157.033 29.7835 157.566 30.417C158.1 31.0505 158.366 31.9574 158.366 33.1377V33.6641H153.355C153.374 34.3932 153.586 34.9834 153.991 35.4346C154.401 35.8812 154.921 36.1045 155.55 36.1045C155.996 36.1045 156.375 36.0133 156.685 35.8311C156.994 35.6488 157.266 35.4072 157.498 35.1064L158.271 35.708C157.651 36.6605 156.721 37.1367 155.481 37.1367ZM155.324 30.5059C154.814 30.5059 154.385 30.6927 154.039 31.0664C153.693 31.4355 153.479 31.9551 153.396 32.625H157.102V32.5293C157.065 31.8867 156.892 31.39 156.582 31.0391C156.272 30.6836 155.853 30.5059 155.324 30.5059ZM163.411 30.7383C163.22 30.7064 163.012 30.6904 162.789 30.6904C161.96 30.6904 161.397 31.0436 161.101 31.75V37H159.836V29.6035H161.066L161.087 30.458C161.502 29.7972 162.09 29.4668 162.851 29.4668C163.097 29.4668 163.284 29.4987 163.411 29.5625V30.7383ZM168.887 35.0381C168.887 34.6963 168.757 34.432 168.497 34.2451C168.242 34.0537 167.793 33.8896 167.15 33.7529C166.512 33.6162 166.004 33.4521 165.626 33.2607C165.252 33.0693 164.974 32.8415 164.792 32.5771C164.614 32.3128 164.525 31.9984 164.525 31.6338C164.525 31.0277 164.781 30.515 165.291 30.0957C165.806 29.6764 166.462 29.4668 167.26 29.4668C168.098 29.4668 168.777 29.6833 169.297 30.1162C169.821 30.5492 170.083 31.1029 170.083 31.7773H168.812C168.812 31.431 168.663 31.1325 168.367 30.8818C168.076 30.6312 167.706 30.5059 167.26 30.5059C166.799 30.5059 166.439 30.6061 166.18 30.8066C165.92 31.0072 165.79 31.2692 165.79 31.5928C165.79 31.8981 165.911 32.1283 166.152 32.2832C166.394 32.4382 166.829 32.5863 167.458 32.7275C168.091 32.8688 168.604 33.0374 168.996 33.2334C169.388 33.4294 169.677 33.6663 169.864 33.9443C170.056 34.2178 170.151 34.5527 170.151 34.9492C170.151 35.61 169.887 36.141 169.358 36.542C168.83 36.9385 168.144 37.1367 167.301 37.1367C166.708 37.1367 166.184 37.0319 165.729 36.8223C165.273 36.6126 164.915 36.321 164.655 35.9473C164.4 35.569 164.272 35.1611 164.272 34.7236H165.537C165.56 35.1475 165.729 35.4847 166.043 35.7354C166.362 35.9814 166.781 36.1045 167.301 36.1045C167.779 36.1045 168.162 36.0088 168.449 35.8174C168.741 35.6214 168.887 35.3617 168.887 35.0381ZM178.847 30.7383C178.655 30.7064 178.448 30.6904 178.225 30.6904C177.395 30.6904 176.832 31.0436 176.536 31.75V37H175.271V29.6035H176.502L176.522 30.458C176.937 29.7972 177.525 29.4668 178.286 29.4668C178.532 29.4668 178.719 29.4987 178.847 29.5625V30.7383ZM182.948 37.1367C181.946 37.1367 181.13 36.8086 180.501 36.1523C179.872 35.4915 179.558 34.6097 179.558 33.5068V33.2744C179.558 32.5407 179.697 31.8867 179.975 31.3125C180.257 30.7337 180.649 30.2826 181.15 29.959C181.656 29.6309 182.203 29.4668 182.791 29.4668C183.753 29.4668 184.5 29.7835 185.033 30.417C185.566 31.0505 185.833 31.9574 185.833 33.1377V33.6641H180.822C180.84 34.3932 181.052 34.9834 181.458 35.4346C181.868 35.8812 182.388 36.1045 183.017 36.1045C183.463 36.1045 183.841 36.0133 184.151 35.8311C184.461 35.6488 184.732 35.4072 184.965 35.1064L185.737 35.708C185.118 36.6605 184.188 37.1367 182.948 37.1367ZM182.791 30.5059C182.281 30.5059 181.852 30.6927 181.506 31.0664C181.16 31.4355 180.945 31.9551 180.863 32.625H184.568V32.5293C184.532 31.8867 184.359 31.39 184.049 31.0391C183.739 30.6836 183.32 30.5059 182.791 30.5059ZM187.002 33.2402C187.002 32.0872 187.269 31.1712 187.802 30.4922C188.335 29.8086 189.041 29.4668 189.921 29.4668C190.823 29.4668 191.527 29.7858 192.033 30.4238L192.095 29.6035H193.25V36.8223C193.25 37.7793 192.965 38.5335 192.396 39.085C191.83 39.6364 191.069 39.9121 190.112 39.9121C189.579 39.9121 189.057 39.7982 188.547 39.5703C188.036 39.3424 187.647 39.0303 187.378 38.6338L188.034 37.875C188.576 38.5449 189.24 38.8799 190.023 38.8799C190.639 38.8799 191.117 38.7067 191.459 38.3604C191.805 38.014 191.979 37.5264 191.979 36.8975V36.2617C191.473 36.8451 190.782 37.1367 189.907 37.1367C189.041 37.1367 188.34 36.7881 187.802 36.0908C187.269 35.3936 187.002 34.4434 187.002 33.2402ZM188.273 33.3838C188.273 34.2178 188.444 34.874 188.786 35.3525C189.128 35.8265 189.606 36.0635 190.222 36.0635C191.019 36.0635 191.605 35.7012 191.979 34.9766V31.5996C191.591 30.8932 191.01 30.54 190.235 30.54C189.62 30.54 189.139 30.7793 188.793 31.2578C188.447 31.7363 188.273 32.445 188.273 33.3838ZM196.538 37H195.273V29.6035H196.538V37ZM195.171 27.6416C195.171 27.4365 195.232 27.2633 195.355 27.1221C195.483 26.9808 195.67 26.9102 195.916 26.9102C196.162 26.9102 196.349 26.9808 196.477 27.1221C196.604 27.2633 196.668 27.4365 196.668 27.6416C196.668 27.8467 196.604 28.0176 196.477 28.1543C196.349 28.291 196.162 28.3594 195.916 28.3594C195.67 28.3594 195.483 28.291 195.355 28.1543C195.232 28.0176 195.171 27.8467 195.171 27.6416ZM202.875 35.0381C202.875 34.6963 202.745 34.432 202.485 34.2451C202.23 34.0537 201.781 33.8896 201.139 33.7529C200.501 33.6162 199.993 33.4521 199.614 33.2607C199.241 33.0693 198.963 32.8415 198.78 32.5771C198.603 32.3128 198.514 31.9984 198.514 31.6338C198.514 31.0277 198.769 30.515 199.279 30.0957C199.794 29.6764 200.451 29.4668 201.248 29.4668C202.087 29.4668 202.766 29.6833 203.285 30.1162C203.809 30.5492 204.071 31.1029 204.071 31.7773H202.8C202.8 31.431 202.652 31.1325 202.355 30.8818C202.064 30.6312 201.695 30.5059 201.248 30.5059C200.788 30.5059 200.428 30.6061 200.168 30.8066C199.908 31.0072 199.778 31.2692 199.778 31.5928C199.778 31.8981 199.899 32.1283 200.141 32.2832C200.382 32.4382 200.817 32.5863 201.446 32.7275C202.08 32.8688 202.592 33.0374 202.984 33.2334C203.376 33.4294 203.666 33.6663 203.853 33.9443C204.044 34.2178 204.14 34.5527 204.14 34.9492C204.14 35.61 203.875 36.141 203.347 36.542C202.818 36.9385 202.132 37.1367 201.289 37.1367C200.697 37.1367 200.173 37.0319 199.717 36.8223C199.261 36.6126 198.903 36.321 198.644 35.9473C198.388 35.569 198.261 35.1611 198.261 34.7236H199.525C199.548 35.1475 199.717 35.4847 200.031 35.7354C200.35 35.9814 200.77 36.1045 201.289 36.1045C201.768 36.1045 202.15 36.0088 202.438 35.8174C202.729 35.6214 202.875 35.3617 202.875 35.0381ZM207.503 27.8125V29.6035H208.884V30.5811H207.503V35.168C207.503 35.4642 207.564 35.6875 207.688 35.8379C207.811 35.9837 208.02 36.0566 208.316 36.0566C208.462 36.0566 208.663 36.0293 208.918 35.9746V37C208.585 37.0911 208.262 37.1367 207.947 37.1367C207.382 37.1367 206.956 36.9658 206.669 36.624C206.382 36.2822 206.238 35.7969 206.238 35.168V30.5811H204.892V29.6035H206.238V27.8125H207.503ZM213.437 37.1367C212.434 37.1367 211.618 36.8086 210.989 36.1523C210.36 35.4915 210.046 34.6097 210.046 33.5068V33.2744C210.046 32.5407 210.185 31.8867 210.463 31.3125C210.745 30.7337 211.137 30.2826 211.639 29.959C212.145 29.6309 212.691 29.4668 213.279 29.4668C214.241 29.4668 214.988 29.7835 215.521 30.417C216.055 31.0505 216.321 31.9574 216.321 33.1377V33.6641H211.311C211.329 34.3932 211.541 34.9834 211.946 35.4346C212.356 35.8812 212.876 36.1045 213.505 36.1045C213.951 36.1045 214.33 36.0133 214.64 35.8311C214.95 35.6488 215.221 35.4072 215.453 35.1064L216.226 35.708C215.606 36.6605 214.676 37.1367 213.437 37.1367ZM213.279 30.5059C212.769 30.5059 212.34 30.6927 211.994 31.0664C211.648 31.4355 211.434 31.9551 211.352 32.625H215.057V32.5293C215.02 31.8867 214.847 31.39 214.537 31.0391C214.227 30.6836 213.808 30.5059 213.279 30.5059ZM221.366 30.7383C221.175 30.7064 220.967 30.6904 220.744 30.6904C219.915 30.6904 219.352 31.0436 219.056 31.75V37H217.791V29.6035H219.021L219.042 30.458C219.457 29.7972 220.045 29.4668 220.806 29.4668C221.052 29.4668 221.239 29.4987 221.366 29.5625V30.7383ZM225.468 37.1367C224.465 37.1367 223.649 36.8086 223.021 36.1523C222.392 35.4915 222.077 34.6097 222.077 33.5068V33.2744C222.077 32.5407 222.216 31.8867 222.494 31.3125C222.777 30.7337 223.169 30.2826 223.67 29.959C224.176 29.6309 224.723 29.4668 225.311 29.4668C226.272 29.4668 227.02 29.7835 227.553 30.417C228.086 31.0505 228.353 31.9574 228.353 33.1377V33.6641H223.342C223.36 34.3932 223.572 34.9834 223.978 35.4346C224.388 35.8812 224.907 36.1045 225.536 36.1045C225.983 36.1045 226.361 36.0133 226.671 35.8311C226.981 35.6488 227.252 35.4072 227.484 35.1064L228.257 35.708C227.637 36.6605 226.707 37.1367 225.468 37.1367ZM225.311 30.5059C224.8 30.5059 224.372 30.6927 224.025 31.0664C223.679 31.4355 223.465 31.9551 223.383 32.625H227.088V32.5293C227.051 31.8867 226.878 31.39 226.568 31.0391C226.258 30.6836 225.839 30.5059 225.311 30.5059ZM229.515 33.2402C229.515 32.1055 229.784 31.194 230.321 30.5059C230.859 29.8132 231.563 29.4668 232.434 29.4668C233.299 29.4668 233.985 29.763 234.491 30.3555V26.5H235.756V37H234.594L234.532 36.207C234.026 36.8268 233.322 37.1367 232.42 37.1367C231.563 37.1367 230.864 36.7858 230.321 36.084C229.784 35.3822 229.515 34.4661 229.515 33.3359V33.2402ZM230.779 33.3838C230.779 34.2223 230.952 34.8786 231.299 35.3525C231.645 35.8265 232.124 36.0635 232.734 36.0635C233.536 36.0635 234.122 35.7035 234.491 34.9834V31.5859C234.113 30.8887 233.532 30.54 232.748 30.54C232.128 30.54 231.645 30.7793 231.299 31.2578C230.952 31.7363 230.779 32.445 230.779 33.3838ZM242.913 27.8125V29.6035H244.294V30.5811H242.913V35.168C242.913 35.4642 242.975 35.6875 243.098 35.8379C243.221 35.9837 243.43 36.0566 243.727 36.0566C243.872 36.0566 244.073 36.0293 244.328 35.9746V37C243.995 37.0911 243.672 37.1367 243.357 37.1367C242.792 37.1367 242.366 36.9658 242.079 36.624C241.792 36.2822 241.648 35.7969 241.648 35.168V30.5811H240.302V29.6035H241.648V27.8125H242.913ZM245.306 33.2334C245.306 32.5088 245.447 31.8571 245.729 31.2783C246.017 30.6995 246.413 30.2529 246.919 29.9385C247.429 29.624 248.01 29.4668 248.662 29.4668C249.669 29.4668 250.483 29.8154 251.103 30.5127C251.727 31.21 252.039 32.1374 252.039 33.2949V33.3838C252.039 34.1038 251.9 34.751 251.622 35.3252C251.349 35.8949 250.954 36.3392 250.439 36.6582C249.929 36.9772 249.341 37.1367 248.676 37.1367C247.673 37.1367 246.86 36.7881 246.235 36.0908C245.616 35.3936 245.306 34.4707 245.306 33.3223V33.2334ZM246.577 33.3838C246.577 34.2041 246.766 34.8626 247.145 35.3594C247.527 35.8561 248.038 36.1045 248.676 36.1045C249.318 36.1045 249.829 35.8538 250.207 35.3525C250.585 34.8467 250.774 34.1403 250.774 33.2334C250.774 32.4222 250.581 31.766 250.193 31.2646C249.811 30.7588 249.3 30.5059 248.662 30.5059C248.038 30.5059 247.534 30.7542 247.151 31.251C246.769 31.7477 246.577 32.4587 246.577 33.3838ZM259.442 33.8623L259.634 35.1748L259.914 33.9922L261.883 27.0469H262.99L264.911 33.9922L265.185 35.1953L265.396 33.8555L266.941 27.0469H268.261L265.848 37H264.651L262.601 29.7471L262.443 28.9883L262.286 29.7471L260.16 37H258.964L256.558 27.0469H257.87L259.442 33.8623ZM272.376 37.1367C271.373 37.1367 270.558 36.8086 269.929 36.1523C269.3 35.4915 268.985 34.6097 268.985 33.5068V33.2744C268.985 32.5407 269.124 31.8867 269.402 31.3125C269.685 30.7337 270.077 30.2826 270.578 29.959C271.084 29.6309 271.631 29.4668 272.219 29.4668C273.18 29.4668 273.928 29.7835 274.461 30.417C274.994 31.0505 275.261 31.9574 275.261 33.1377V33.6641H270.25C270.268 34.3932 270.48 34.9834 270.886 35.4346C271.296 35.8812 271.815 36.1045 272.444 36.1045C272.891 36.1045 273.269 36.0133 273.579 35.8311C273.889 35.6488 274.16 35.4072 274.393 35.1064L275.165 35.708C274.545 36.6605 273.616 37.1367 272.376 37.1367ZM272.219 30.5059C271.708 30.5059 271.28 30.6927 270.934 31.0664C270.587 31.4355 270.373 31.9551 270.291 32.625H273.996V32.5293C273.96 31.8867 273.786 31.39 273.477 31.0391C273.167 30.6836 272.747 30.5059 272.219 30.5059ZM282.992 33.3838C282.992 34.514 282.732 35.4232 282.213 36.1113C281.693 36.7949 280.996 37.1367 280.121 37.1367C279.187 37.1367 278.465 36.8063 277.954 36.1455L277.893 37H276.73V26.5H277.995V30.417C278.506 29.7835 279.21 29.4668 280.107 29.4668C281.005 29.4668 281.709 29.8063 282.22 30.4854C282.735 31.1644 282.992 32.0941 282.992 33.2744V33.3838ZM281.728 33.2402C281.728 32.3789 281.561 31.7135 281.229 31.2441C280.896 30.7747 280.417 30.54 279.793 30.54C278.959 30.54 278.36 30.9274 277.995 31.7021V34.9014C278.382 35.6761 278.986 36.0635 279.807 36.0635C280.413 36.0635 280.884 35.8288 281.222 35.3594C281.559 34.89 281.728 34.1836 281.728 33.2402ZM285.966 37H284.701V29.6035H285.966V37ZM284.599 27.6416C284.599 27.4365 284.66 27.2633 284.783 27.1221C284.911 26.9808 285.098 26.9102 285.344 26.9102C285.59 26.9102 285.777 26.9808 285.904 27.1221C286.032 27.2633 286.096 27.4365 286.096 27.6416C286.096 27.8467 286.032 28.0176 285.904 28.1543C285.777 28.291 285.59 28.3594 285.344 28.3594C285.098 28.3594 284.911 28.291 284.783 28.1543C284.66 28.0176 284.599 27.8467 284.599 27.6416ZM289.192 29.6035L289.233 30.5332C289.799 29.8223 290.537 29.4668 291.448 29.4668C293.011 29.4668 293.8 30.3486 293.813 32.1123V37H292.549V32.1055C292.544 31.5723 292.421 31.1781 292.18 30.9229C291.943 30.6676 291.571 30.54 291.065 30.54C290.655 30.54 290.295 30.6494 289.985 30.8682C289.675 31.0869 289.434 31.374 289.261 31.7295V37H287.996V29.6035H289.192ZM300.287 37C300.214 36.8542 300.155 36.5944 300.109 36.2207C299.521 36.8314 298.82 37.1367 298.004 37.1367C297.275 37.1367 296.675 36.9316 296.206 36.5215C295.741 36.1068 295.509 35.5827 295.509 34.9492C295.509 34.179 295.8 33.582 296.384 33.1582C296.972 32.7298 297.797 32.5156 298.858 32.5156H300.089V31.9346C300.089 31.4925 299.957 31.1416 299.692 30.8818C299.428 30.6175 299.038 30.4854 298.523 30.4854C298.072 30.4854 297.694 30.5993 297.389 30.8271C297.083 31.055 296.931 31.3307 296.931 31.6543H295.659C295.659 31.2852 295.789 30.9297 296.049 30.5879C296.313 30.2415 296.669 29.9681 297.115 29.7676C297.566 29.5671 298.061 29.4668 298.599 29.4668C299.451 29.4668 300.118 29.681 300.602 30.1094C301.085 30.5332 301.335 31.1188 301.354 31.8662V35.2705C301.354 35.9495 301.44 36.4896 301.613 36.8906V37H300.287ZM298.188 36.0361C298.585 36.0361 298.961 35.9336 299.316 35.7285C299.672 35.5234 299.929 35.2568 300.089 34.9287V33.4111H299.098C297.548 33.4111 296.773 33.8646 296.773 34.7715C296.773 35.168 296.906 35.4779 297.17 35.7012C297.434 35.9245 297.774 36.0361 298.188 36.0361ZM306.911 30.7383C306.72 30.7064 306.512 30.6904 306.289 30.6904C305.46 30.6904 304.897 31.0436 304.601 31.75V37H303.336V29.6035H304.566L304.587 30.458C305.002 29.7972 305.59 29.4668 306.351 29.4668C306.597 29.4668 306.784 29.4987 306.911 29.5625V30.7383Z" fill="black"/>
<defs>
<filter id="filter0_d" x="0" y="0" width="356" height="78" filterUnits="userSpaceOnUse" color-interpolation-filters="sRGB">
<feFlood flood-opacity="0" result="BackgroundImageFix"/>
<feColorMatrix in="SourceAlpha" type="matrix" values="0 0 0 0 0 0 0 0 0 0 0 0 0 0 0 0 0 0 127 0"/>
<feOffset dy="4"/>
<feGaussianBlur stdDeviation="2"/>
<feColorMatrix type="matrix" values="0 0 0 0 0 0 0 0 0 0 0 0 0 0 0 0 0 0 0.25 0"/>
<feBlend mode="normal" in2="BackgroundImageFix" result="effect1_dropShadow"/>
<feBlend mode="normal" in="SourceGraphic" in2="effect1_dropShadow" result="shape"/>
</filter>
</defs>
</svg>
