<svg xmlns="http://www.w3.org/2000/svg" width="37.384" height="37.386" viewBox="0 0 37.384 37.386"><defs><style>.a{fill:#e6ba73;}</style></defs><g transform="translate(-15.482 -15.276)"><g transform="translate(15.482 15.276)"><path class="a" d="M37.226,1.127a1.1,1.1,0,0,0-.968-.968C27.59-.8,20.2,2.664,14.175,8.868a45.189,45.189,0,0,0-4.5,5.469A8.7,8.7,0,0,0,3.42,16.926l-3.1,3.1A1.1,1.1,0,0,0,1.38,21.857a15.253,15.253,0,0,1,3.009-.47,8.459,8.459,0,0,1,1.034.009c-.684,1.315-1.208,2.417-1.381,2.692a1.1,1.1,0,0,0,.153,1.358l1.793,1.793C3.378,30.8,3.335,32.619,3.344,32.877A1.1,1.1,0,0,0,4.5,33.936c.612,0,2.365-.26,5.558-2.631l1.886,1.886a1.1,1.1,0,0,0,1.367.147c.295-.19,1.332-.692,2.575-1.341a26.757,26.757,0,0,1-.378,4.132,1.1,1.1,0,0,0,1.858.935l3.1-3.1a8.651,8.651,0,0,0,2.456-6.2,45.23,45.23,0,0,0,5.755-4.73C34.815,17.013,38.176,9.68,37.226,1.127Zm-2.1,1.127a21.873,21.873,0,0,1-.555,6.866,9.646,9.646,0,0,1-3.86-2.451A9.635,9.635,0,0,1,28.26,2.8,22.084,22.084,0,0,1,35.13,2.254ZM4.246,19.2l.723-.723a6.917,6.917,0,0,1,3.142-1.786c-.591.938-1.117,1.833-1.582,2.659A8.8,8.8,0,0,0,4.246,19.2Zm2.073,5.274c.237-.468.524-1.054,1.05-2.049l1.442,1.442q-.8.863-1.457,1.641Zm5.356-.419a3.239,3.239,0,0,1,2.514-.964,3.276,3.276,0,0,1-.965,2.513A28.332,28.332,0,0,1,6.1,31.2,28.06,28.06,0,0,1,11.676,24.053Zm1.232,7.007-1.13-1.13q.774-.657,1.636-1.462L14.949,30C13.94,30.542,13.519,30.745,12.908,31.061Zm6,1.356-.877.877a10.69,10.69,0,0,0-.054-2.434c.806-.454,1.68-.968,2.6-1.543A6.46,6.46,0,0,1,18.911,32.417ZM16.943,28.9l-1.964-1.964c1.453-1.6,1.4-3.14,1.4-4.94a1.1,1.1,0,0,0-1.1-1.1c-1.682,0-3.3-.09-4.94,1.4L8.467,20.424c5.121-8.98,11.041-14.665,17.691-17.007a11.8,11.8,0,0,0,3.008,4.8,11.8,11.8,0,0,0,4.78,3C31.591,17.834,25.907,23.75,16.943,28.9Zm0,0" transform="translate(-0.001 0)"/><path class="a" d="M259.54,113.435a5.477,5.477,0,1,0,0,7.746A5.483,5.483,0,0,0,259.54,113.435Zm-1.549,6.2a3.286,3.286,0,1,1,0-4.647A3.29,3.29,0,0,1,257.991,119.632Zm0,0" transform="translate(-231.924 -103.668)"/></g></g></svg>