<svg xmlns="http://www.w3.org/2000/svg" width="31.146" height="35.826" viewBox="0 0 31.146 35.826"><defs><style>.a{fill:#24aef2;}</style></defs><g transform="translate(-17.709 -16.369)"><g transform="translate(17.709 16.369)"><path class="a" d="M119.267,80.336a8.919,8.919,0,1,0,8.919,8.919A8.929,8.929,0,0,0,119.267,80.336Zm0,15.739a6.82,6.82,0,1,1,6.82-6.82A6.828,6.828,0,0,1,119.267,96.075Zm0,0" transform="translate(-102.661 -74.715)"/><path class="a" d="M186.483,164.705l-3.233,3.232-1.245-1.245a1.05,1.05,0,1,0-1.484,1.484l1.987,1.987a1.05,1.05,0,0,0,1.484,0l3.975-3.975a1.05,1.05,0,1,0-1.484-1.484Zm0,0" transform="translate(-167.639 -152.895)"/><path class="a" d="M17.106,0A14.557,14.557,0,0,0,2.567,14.363L.836,19.411A3.792,3.792,0,0,0,.921,22.76a1.638,1.638,0,0,0,1.345.7h.3v1.761a3.865,3.865,0,0,0,3.86,3.86,1.763,1.763,0,0,1,1.761,1.761v1.124a3.864,3.864,0,0,0,3.86,3.86h7.87a3.865,3.865,0,0,0,3.86-3.86V27.461A14.541,14.541,0,0,0,17.106,0Zm5.183,25.851a1.05,1.05,0,0,0-.612.954v5.161a1.763,1.763,0,0,1-1.761,1.761h-7.87a1.763,1.763,0,0,1-1.761-1.761V30.842a3.864,3.864,0,0,0-3.86-3.86,1.763,1.763,0,0,1-1.761-1.761V22.41a1.05,1.05,0,0,0-1.05-1.05H2.605a3.278,3.278,0,0,1,.216-1.269l1.786-5.211a1.051,1.051,0,0,0,.057-.34A12.441,12.441,0,1,1,22.289,25.851Zm0,0" transform="translate(-0.5)"/></g></g></svg>