<svg xmlns="http://www.w3.org/2000/svg" width="29.341" height="29.243" viewBox="0 0 29.341 29.243"><defs><style>.a{fill:#d14343;}</style></defs><g transform="translate(-17.733 -16.379)"><g transform="translate(17.733 16.379)"><g transform="translate(0 0)"><path class="a" d="M14.622,27.656H3.655a1.219,1.219,0,0,1-1.218-1.218V4.505A1.219,1.219,0,0,1,3.655,3.287H14.622a1.218,1.218,0,0,0,0-2.437H3.655A3.66,3.66,0,0,0,0,4.505V26.438a3.66,3.66,0,0,0,3.655,3.655H14.622a1.218,1.218,0,0,0,0-2.437Z" transform="translate(0 -0.85)"/></g><g transform="translate(9.748 6.092)"><path class="a" d="M189.33,114.826l-7.408-7.311a1.218,1.218,0,0,0-1.711,1.735l5.294,5.225H171.318a1.218,1.218,0,0,0,0,2.437H185.5l-5.294,5.225a1.218,1.218,0,1,0,1.711,1.735l7.408-7.311a1.218,1.218,0,0,0,0-1.735Z" transform="translate(-170.1 -107.165)"/></g></g></g></svg>