<svg xmlns="http://www.w3.org/2000/svg" width="40" height="50" viewBox="0 0 40 50"><defs><style>.a{fill:#fff;stroke:#707070;stroke-width:2px;}.a,.c{stroke-linecap:round;stroke-linejoin:round;}.b{fill:#b0b5c3;}.c,.e{fill:none;}.c{stroke:#e6ba73;stroke-width:3px;}.d{stroke:none;}</style></defs><g transform="translate(0 0)"><g class="a" transform="translate(0 0)"><rect class="d" width="40" height="50"/><rect class="e" x="1" y="1" width="38" height="48"/></g><path class="b" d="M271.875,302.023H249.521a1.687,1.687,0,0,0,0,3.357h22.354a1.687,1.687,0,0,0,0-3.357Zm0,0" transform="translate(-240.373 -292.336)"/><path class="b" d="M271.875,302.023H249.521a1.687,1.687,0,0,0,0,3.357h22.354a1.687,1.687,0,0,0,0-3.357Zm0,0" transform="translate(-240.373 -284.336)"/><path class="c" d="M12.593,38.967l4.213,3.283,5.318-8.127" transform="translate(3 -3.039)"/></g></svg>