<svg xmlns="http://www.w3.org/2000/svg" width="30" height="30" viewBox="0 0 30 30"><defs><style>.a{fill:none;}.b{fill:#707070;}</style></defs><g transform="translate(-171.4 -9)"><rect class="a" width="30" height="30" rx="4" transform="translate(171.4 9)"/><path class="b" d="M2.517,20.048h0L.035,15.8l4.379-2.5.653,1.118L2.187,16.061a8.046,8.046,0,0,0,3.957,1.033,8.348,8.348,0,0,0,3.544-.8,8.082,8.082,0,0,0,2.926-2.33A7.838,7.838,0,0,0,14.294,9.62a7.665,7.665,0,0,0-3.071-6.666A7.943,7.943,0,0,0,6.43,1.367a8.377,8.377,0,0,0-1.13.077c-.082.011-.166.024-.248.038L4.981.187A9.686,9.686,0,0,1,6.447.075a9.257,9.257,0,0,1,5.59,1.844,8.925,8.925,0,0,1,3.578,7.766,9.133,9.133,0,0,1-1.956,5.067,9.417,9.417,0,0,1-3.408,2.714,9.727,9.727,0,0,1-4.129.926,9.378,9.378,0,0,1-3.4-.632L3.67,19.39l-1.152.658Z" transform="translate(190.098 35.712) rotate(-161)"/></g></svg>