<svg xmlns="http://www.w3.org/2000/svg" width="30" height="30" viewBox="0 0 30 30"><defs><style>.a{fill:none;}.b{fill:#707070;}</style></defs><g transform="translate(-171 -9)"><rect class="a" width="30" height="30" rx="4" transform="translate(171 9)"/><path class="b" d="M45.931-891.711h0a9.249,9.249,0,0,1-1.3-.093l.07-1.294.2.029a7.991,7.991,0,0,0,1.04.068,7.751,7.751,0,0,0,4.757-1.622,7.774,7.774,0,0,0,2.012-2.291,7.854,7.854,0,0,0,1.041-4.38,7.8,7.8,0,0,0-1.6-4.324,7.794,7.794,0,0,0-6.231-3.065,7.822,7.822,0,0,0-3.939,1.062l2.8,1.617-.647,1.121-4.258-2.458,2.459-4.258,1.121.646-.944,1.634a9.077,9.077,0,0,1,3.406-.658,9.244,9.244,0,0,1,3.985.907,9.024,9.024,0,0,1,3.273,2.663,9.076,9.076,0,0,1,1.87,5.037,9.155,9.155,0,0,1-1.212,5.1,9.061,9.061,0,0,1-2.345,2.669A9.042,9.042,0,0,1,45.931-891.711Z" transform="matrix(0.946, -0.326, 0.326, 0.946, 435.126, 891.65)"/></g></svg>