<svg xmlns="http://www.w3.org/2000/svg" width="15" height="15" viewBox="0 0 15 15"><defs><style>.a{fill:#d14343;}.b{fill:#fff;}</style></defs><g transform="translate(-1211 -461)"><g transform="translate(673 151)"><g transform="translate(0 -1)"><circle class="a" cx="6.5" cy="6.5" r="6.5" transform="translate(539 312)"/><g transform="translate(537 309)"><g transform="translate(1 2)"><path class="a" d="M8.25,3.75H6.75v3h-3v1.5h3v3h1.5v-3h3V6.75h-3ZM7.5,0A7.5,7.5,0,1,0,15,7.5,7.522,7.522,0,0,0,7.5,0Zm0,13.5a6,6,0,1,1,6-6A6.018,6.018,0,0,1,7.5,13.5Z"/></g></g></g></g><path class="b" d="M3.508-4.2H.656V-5.454H3.508V-8.333H4.8v2.879H7.656V-4.2H4.8v2.865H3.508Z" transform="translate(1212.144 468.979) rotate(45)"/></g></svg>